{
    "asset" : {
        "generator" : "Khronos glTF Blender I/O v3.4.50",
        "version" : "2.0"
    },
    "scene" : 0,
    "scenes" : [
        {
            "name" : "Scene",
            "nodes" : [
                0,
                1,
                2,
                3,
                4,
                5,
                6
            ]
        }
    ],
    "nodes" : [
        {
            "name" : "earth"
        },
        {
            "mesh" : 0,
            "name" : "ocean"
        },
        {
            "mesh" : 1,
            "name" : "earth.002"
        },
        {
            "mesh" : 2,
            "name" : "earth.003"
        },
        {
            "mesh" : 3,
            "name" : "earth.004"
        },
        {
            "mesh" : 4,
            "name" : "earth.005"
        },
        {
            "mesh" : 5,
            "name" : "earth.001"
        }
    ],
    "materials" : [
        {
            "doubleSided" : true,
            "name" : "ocean.001",
            "pbrMetallicRoughness" : {
                "baseColorFactor" : [
                    0.027320340275764465,
                    0.06300968676805496,
                    0.7991027235984802,
                    1
                ],
                "metallicFactor" : 0,
                "roughnessFactor" : 0.10000000149011612
            }
        },
        {
            "doubleSided" : true,
            "name" : "earth.001",
            "pbrMetallicRoughness" : {
                "baseColorFactor" : [
                    0,
                    0.5028862953186035,
                    0.001517776632681489,
                    1
                ],
                "metallicFactor" : 0
            }
        },
        {
            "doubleSided" : true,
            "name" : "earth.002",
            "pbrMetallicRoughness" : {
                "baseColorFactor" : [
                    0,
                    0.5028862953186035,
                    0.001517776632681489,
                    1
                ],
                "metallicFactor" : 0
            }
        }
    ],
    "meshes" : [
        {
            "name" : "Icosphere.001",
            "primitives" : [
                {
                    "attributes" : {
                        "POSITION" : 0,
                        "TEXCOORD_0" : 1,
                        "NORMAL" : 2
                    },
                    "indices" : 3,
                    "material" : 0
                }
            ]
        },
        {
            "name" : "Sphere.002",
            "primitives" : [
                {
                    "attributes" : {
                        "POSITION" : 4,
                        "TEXCOORD_0" : 5,
                        "NORMAL" : 6
                    },
                    "indices" : 7,
                    "material" : 1
                }
            ]
        },
        {
            "name" : "Sphere.004",
            "primitives" : [
                {
                    "attributes" : {
                        "POSITION" : 8,
                        "TEXCOORD_0" : 9,
                        "NORMAL" : 10
                    },
                    "indices" : 11,
                    "material" : 1
                }
            ]
        },
        {
            "name" : "Sphere.005",
            "primitives" : [
                {
                    "attributes" : {
                        "POSITION" : 12,
                        "TEXCOORD_0" : 13,
                        "NORMAL" : 14
                    },
                    "indices" : 15,
                    "material" : 1
                }
            ]
        },
        {
            "name" : "Sphere.007",
            "primitives" : [
                {
                    "attributes" : {
                        "POSITION" : 16,
                        "TEXCOORD_0" : 17,
                        "NORMAL" : 18
                    },
                    "indices" : 19,
                    "material" : 1
                }
            ]
        },
        {
            "name" : "Sphere.001",
            "primitives" : [
                {
                    "attributes" : {
                        "POSITION" : 20,
                        "TEXCOORD_0" : 21,
                        "NORMAL" : 22
                    },
                    "indices" : 23,
                    "material" : 2
                }
            ]
        }
    ],
    "accessors" : [
        {
            "bufferView" : 0,
            "componentType" : 5126,
            "count" : 960,
            "max" : [
                1,
                1,
                0.9999999403953552
            ],
            "min" : [
                -0.9999999403953552,
                -1,
                -0.9999999403953552
            ],
            "type" : "VEC3"
        },
        {
            "bufferView" : 1,
            "componentType" : 5126,
            "count" : 960,
            "type" : "VEC2"
        },
        {
            "bufferView" : 2,
            "componentType" : 5126,
            "count" : 960,
            "type" : "VEC3"
        },
        {
            "bufferView" : 3,
            "componentType" : 5123,
            "count" : 960,
            "type" : "SCALAR"
        },
        {
            "bufferView" : 4,
            "componentType" : 5126,
            "count" : 7033,
            "max" : [
                0.957318902015686,
                1.0011944770812988,
                1.0447255373001099
            ],
            "min" : [
                -0.9212445616722107,
                -1.0007145404815674,
                -0.8994395732879639
            ],
            "type" : "VEC3"
        },
        {
            "bufferView" : 5,
            "componentType" : 5126,
            "count" : 7033,
            "type" : "VEC2"
        },
        {
            "bufferView" : 6,
            "componentType" : 5126,
            "count" : 7033,
            "type" : "VEC3"
        },
        {
            "bufferView" : 7,
            "componentType" : 5123,
            "count" : 7089,
            "type" : "SCALAR"
        },
        {
            "bufferView" : 8,
            "componentType" : 5126,
            "count" : 851,
            "max" : [
                1.045905590057373,
                0.35844722390174866,
                0.34882164001464844
            ],
            "min" : [
                0.4744807779788971,
                -0.8221303820610046,
                -0.7812912464141846
            ],
            "type" : "VEC3"
        },
        {
            "bufferView" : 9,
            "componentType" : 5126,
            "count" : 851,
            "type" : "VEC2"
        },
        {
            "bufferView" : 10,
            "componentType" : 5126,
            "count" : 851,
            "type" : "VEC3"
        },
        {
            "bufferView" : 11,
            "componentType" : 5123,
            "count" : 867,
            "type" : "SCALAR"
        },
        {
            "bufferView" : 12,
            "componentType" : 5126,
            "count" : 1019,
            "max" : [
                0.9744099378585815,
                0.9121094346046448,
                0.20209923386573792
            ],
            "min" : [
                0.160180926322937,
                0.2977968752384186,
                -0.8259021043777466
            ],
            "type" : "VEC3"
        },
        {
            "bufferView" : 13,
            "componentType" : 5126,
            "count" : 1019,
            "type" : "VEC2"
        },
        {
            "bufferView" : 14,
            "componentType" : 5126,
            "count" : 1019,
            "type" : "VEC3"
        },
        {
            "bufferView" : 15,
            "componentType" : 5123,
            "count" : 1035,
            "type" : "SCALAR"
        },
        {
            "bufferView" : 16,
            "componentType" : 5126,
            "count" : 2567,
            "max" : [
                0.8814888596534729,
                0.913673996925354,
                0.0038201198913156986
            ],
            "min" : [
                -0.7933747172355652,
                -0.47695475816726685,
                -1.0431290864944458
            ],
            "type" : "VEC3"
        },
        {
            "bufferView" : 17,
            "componentType" : 5126,
            "count" : 2567,
            "type" : "VEC2"
        },
        {
            "bufferView" : 18,
            "componentType" : 5126,
            "count" : 2567,
            "type" : "VEC3"
        },
        {
            "bufferView" : 19,
            "componentType" : 5123,
            "count" : 2613,
            "type" : "SCALAR"
        },
        {
            "bufferView" : 20,
            "componentType" : 5126,
            "count" : 8064,
            "max" : [
                0.9999998807907104,
                1,
                0.9999997615814209
            ],
            "min" : [
                -0.9999997019767761,
                -1,
                -1
            ],
            "type" : "VEC3"
        },
        {
            "bufferView" : 21,
            "componentType" : 5126,
            "count" : 8064,
            "type" : "VEC2"
        },
        {
            "bufferView" : 22,
            "componentType" : 5126,
            "count" : 8064,
            "type" : "VEC3"
        },
        {
            "bufferView" : 23,
            "componentType" : 5123,
            "count" : 11904,
            "type" : "SCALAR"
        }
    ],
    "bufferViews" : [
        {
            "buffer" : 0,
            "byteLength" : 11520,
            "byteOffset" : 0,
            "target" : 34962
        },
        {
            "buffer" : 0,
            "byteLength" : 7680,
            "byteOffset" : 11520,
            "target" : 34962
        },
        {
            "buffer" : 0,
            "byteLength" : 11520,
            "byteOffset" : 19200,
            "target" : 34962
        },
        {
            "buffer" : 0,
            "byteLength" : 1920,
            "byteOffset" : 30720,
            "target" : 34963
        },
        {
            "buffer" : 0,
            "byteLength" : 84396,
            "byteOffset" : 32640,
            "target" : 34962
        },
        {
            "buffer" : 0,
            "byteLength" : 56264,
            "byteOffset" : 117036,
            "target" : 34962
        },
        {
            "buffer" : 0,
            "byteLength" : 84396,
            "byteOffset" : 173300,
            "target" : 34962
        },
        {
            "buffer" : 0,
            "byteLength" : 14178,
            "byteOffset" : 257696,
            "target" : 34963
        },
        {
            "buffer" : 0,
            "byteLength" : 10212,
            "byteOffset" : 271876,
            "target" : 34962
        },
        {
            "buffer" : 0,
            "byteLength" : 6808,
            "byteOffset" : 282088,
            "target" : 34962
        },
        {
            "buffer" : 0,
            "byteLength" : 10212,
            "byteOffset" : 288896,
            "target" : 34962
        },
        {
            "buffer" : 0,
            "byteLength" : 1734,
            "byteOffset" : 299108,
            "target" : 34963
        },
        {
            "buffer" : 0,
            "byteLength" : 12228,
            "byteOffset" : 300844,
            "target" : 34962
        },
        {
            "buffer" : 0,
            "byteLength" : 8152,
            "byteOffset" : 313072,
            "target" : 34962
        },
        {
            "buffer" : 0,
            "byteLength" : 12228,
            "byteOffset" : 321224,
            "target" : 34962
        },
        {
            "buffer" : 0,
            "byteLength" : 2070,
            "byteOffset" : 333452,
            "target" : 34963
        },
        {
            "buffer" : 0,
            "byteLength" : 30804,
            "byteOffset" : 335524,
            "target" : 34962
        },
        {
            "buffer" : 0,
            "byteLength" : 20536,
            "byteOffset" : 366328,
            "target" : 34962
        },
        {
            "buffer" : 0,
            "byteLength" : 30804,
            "byteOffset" : 386864,
            "target" : 34962
        },
        {
            "buffer" : 0,
            "byteLength" : 5226,
            "byteOffset" : 417668,
            "target" : 34963
        },
        {
            "buffer" : 0,
            "byteLength" : 96768,
            "byteOffset" : 422896,
            "target" : 34962
        },
        {
            "buffer" : 0,
            "byteLength" : 64512,
            "byteOffset" : 519664,
            "target" : 34962
        },
        {
            "buffer" : 0,
            "byteLength" : 96768,
            "byteOffset" : 584176,
            "target" : 34962
        },
        {
            "buffer" : 0,
            "byteLength" : 23808,
            "byteOffset" : 680944,
            "target" : 34963
        }
    ],
    "buffers" : [
        {
            "byteLength" : 704752,
            "uri" : "data:application/octet-stream;base64,"
        }
    ]
}
